<svg xmlns="http://www.w3.org/2000/svg" viewBox="0 0 400 300" preserveAspectRatio="xMidYMid slice">
  <defs>
    <linearGradient id="snsBg" x1="0" y1="0" x2="0" y2="1">
      <stop offset="0%" stop-color="#1a1e2a"/>
      <stop offset="100%" stop-color="#0a0c12"/>
    </linearGradient>
    <radialGradient id="snsLamp" cx="0.32" cy="0.45" r="0.32">
      <stop offset="0%" stop-color="#ffd8a0" stop-opacity="0.85"/>
      <stop offset="100%" stop-color="#e8a76c" stop-opacity="0"/>
    </radialGradient>
  </defs>
  <rect width="400" height="300" fill="url(#snsBg)"/>
  <g opacity="0.7" fill="#ffd29a">
    <rect x="0" y="100" width="2" height="3"/>
    <rect x="19" y="131" width="2" height="3"/>
    <rect x="38" y="162" width="2" height="3"/>
    <rect x="57" y="113" width="2" height="3"/>
    <rect x="76" y="144" width="2" height="3"/>
    <rect x="95" y="175" width="2" height="3"/>
    <rect x="114" y="126" width="2" height="3"/>
    <rect x="133" y="157" width="2" height="3"/>
    <rect x="152" y="108" width="2" height="3"/>
    <rect x="171" y="139" width="2" height="3"/>
    <rect x="190" y="170" width="2" height="3"/>
    <rect x="209" y="121" width="2" height="3"/>
    <rect x="228" y="152" width="2" height="3"/>
    <rect x="247" y="103" width="2" height="3"/>
    <rect x="266" y="134" width="2" height="3"/>
    <rect x="285" y="165" width="2" height="3"/>
    <rect x="304" y="116" width="2" height="3"/>
    <rect x="323" y="147" width="2" height="3"/>
    <rect x="342" y="178" width="2" height="3"/>
    <rect x="361" y="129" width="2" height="3"/>
    <rect x="380" y="160" width="2" height="3"/>
    <rect x="399" y="111" width="2" height="3"/>
    <rect x="18" y="142" width="2" height="3"/>
    <rect x="37" y="173" width="2" height="3"/>
    <rect x="56" y="124" width="2" height="3"/>
    <rect x="75" y="155" width="2" height="3"/>
    <rect x="94" y="106" width="2" height="3"/>
    <rect x="113" y="137" width="2" height="3"/>
    <rect x="132" y="168" width="2" height="3"/>
    <rect x="151" y="119" width="2" height="3"/>
  </g>
  <rect y="200" width="400" height="100" fill="#16110a"/>
  <rect x="40" y="180" width="100" height="14" fill="#5a3a22" rx="2"/>
  <rect x="50" y="194" width="120" height="14" fill="#3a2515" rx="2"/>
  <rect x="60" y="208" width="100" height="14" fill="#5a3a22" rx="2"/>
  <rect width="400" height="300" fill="url(#snsLamp)"/>
  <ellipse cx="260" cy="225" rx="22" ry="6" fill="#1a0e08"/>
  <ellipse cx="260" cy="220" rx="22" ry="8" fill="#3a261a"/>
  <path d="M261,218 Q263,210 261,202" stroke="#fff" stroke-width="1" fill="none" opacity="0.4"/>
  <path d="M257,216 Q259,206 257,200" stroke="#fff" stroke-width="1" fill="none" opacity="0.3"/>
</svg>
